<svg width="41" height="69" viewBox="0 0 41 69" fill="none" xmlns="http://www.w3.org/2000/svg">
<g id="Layer_1" clip-path="url(#clip0_258_870)">
<path id="Vector" d="M20.5227 11.0972C31.7238 11.0433 41.0011 20.2436 40.947 31.5884C40.893 42.7664 31.741 51.881 20.4686 51.8638C9.11523 51.8491 -0.0810117 42.5973 0.0639463 31.1987C0.206447 20.0475 9.37075 11.036 20.5227 11.0972ZM38.1879 31.483C38.1633 21.817 30.4191 13.896 20.5817 13.8519C10.8056 13.8078 2.83043 21.5916 2.82552 31.4732C2.82061 41.3621 10.7687 49.092 20.4392 49.1189C30.37 49.1459 38.1683 41.1661 38.1879 31.483Z" fill="white"/>
<path id="Vector_2" d="M20.498 56.0816C27.1464 56.0816 33.7973 56.0816 40.4457 56.0816C40.7619 56.0816 40.9199 56.2377 40.9199 56.5497C40.9199 57.1575 40.9199 57.7653 40.9199 58.3756C40.9199 58.6713 40.775 58.82 40.485 58.8216C37.1117 58.8216 33.7384 58.8216 30.365 58.8216C20.4612 58.8216 10.5549 58.8216 0.651059 58.8216C0.298901 58.8216 0.122822 58.6468 0.122822 58.2971C0.122822 57.6795 0.135107 57.0595 0.117908 56.4419C0.108081 56.1527 0.218642 56.0743 0.493816 56.0767C1.59452 56.089 2.69767 56.0816 3.79837 56.0816C9.36574 56.0816 14.9331 56.0816 20.5005 56.0816H20.498Z" fill="white"/>
<path id="Vector_3" d="M6.02418 2.70786C5.96522 2.70786 5.90625 2.70296 5.84729 2.70786C5.48366 2.74462 5.24043 2.6907 5.06353 2.27162C4.81784 1.68342 4.2552 1.42364 3.62132 1.42364C2.89407 1.42364 2.31178 1.74469 2.00713 2.41376C1.55751 3.40143 1.53785 4.41116 2.02924 5.39393C2.37566 6.08506 3.0636 6.41101 3.8793 6.32279C4.56723 6.24681 5.04142 5.81302 5.22077 5.03122C5.28711 4.74202 5.41978 4.67095 5.68513 4.68565C5.98979 4.70281 6.29444 4.69546 6.5991 4.68565C6.83497 4.6783 6.93079 4.73467 6.88902 5.00671C6.59665 6.92323 5.08318 7.89865 3.28472 7.74425C1.10052 7.55799 0.0243938 5.82037 -0.000175341 4.03864C-0.0124599 3.09018 0.176723 2.20544 0.7369 1.42609C1.51083 0.345289 2.60907 -0.0639944 3.89404 0.00707878C4.86206 0.0609963 5.7097 0.418813 6.3141 1.22513C6.56716 1.56088 6.7244 1.93831 6.8104 2.34514C6.88165 2.676 6.85708 2.70296 6.52539 2.70786C6.35832 2.70786 6.19125 2.70786 6.02418 2.70786Z" fill="white"/>
<path id="Vector_4" d="M39.4188 7.05111C38.5417 8.09025 36.3747 7.98977 35.704 6.33058C35.333 5.41643 35.301 4.49738 35.6401 3.57588C36.242 1.9412 38.2346 1.56868 39.3721 2.74506C39.3721 2.11521 39.3721 1.52211 39.3721 0.929021C39.3721 0.164372 39.3721 0.161921 40.1387 0.164372C41.0256 0.169273 40.9151 0.0589873 40.9175 0.953529C40.9224 3.022 40.9175 5.09293 40.9175 7.1614C40.9175 7.59029 40.9151 7.59029 40.4949 7.59274C40.2787 7.59274 40.0625 7.59274 39.8463 7.59274C39.5842 7.59274 39.4475 7.4653 39.436 7.21042C39.436 7.1712 39.4286 7.13444 39.4188 7.04866V7.05111ZM38.1584 3.23522C37.7653 3.22052 37.4017 3.39207 37.2051 3.7842C36.8415 4.51209 36.8341 5.26448 37.2174 5.98502C37.441 6.40655 37.8317 6.60997 38.3255 6.56095C38.8218 6.50949 39.1314 6.22029 39.2837 5.76444C39.4753 5.18851 39.4729 4.60522 39.2886 4.02928C39.1264 3.51951 38.726 3.23767 38.1584 3.23522Z" fill="white"/>
<path id="Vector_5" d="M10.6114 5.29373C10.0807 5.29373 9.54999 5.29373 9.01929 5.29373C8.71464 5.29373 8.65813 5.36725 8.73184 5.67115C8.83503 6.09269 9.06843 6.39659 9.50822 6.50687C10.0537 6.64167 10.5622 6.57059 10.9308 6.11965C11.0978 5.91623 11.2674 5.85006 11.5082 5.86476C11.7244 5.87702 11.9406 5.87212 12.1568 5.86476C12.3779 5.85986 12.432 5.94074 12.3509 6.15151C11.9872 7.10487 11.2797 7.59993 10.2821 7.70286C9.97012 7.73472 9.65318 7.73962 9.34115 7.68326C8.03161 7.44553 7.18152 6.4407 7.14712 5.10747C7.11764 3.9801 7.45915 3.03654 8.47386 2.43365C10.1618 1.43127 12.1887 2.39688 12.4811 4.33547C12.5106 4.53888 12.5179 4.74475 12.5401 4.94817C12.5671 5.19815 12.4639 5.30108 12.2035 5.29373C11.6728 5.27902 11.1421 5.28883 10.6114 5.28883V5.29373ZM9.83008 4.27665C10.1446 4.27665 10.4566 4.27665 10.7711 4.27665C10.9111 4.27665 10.9603 4.22763 10.9308 4.08058C10.83 3.57327 10.4689 3.25711 9.94555 3.23751C9.32641 3.213 8.88171 3.50219 8.74166 4.00951C8.68761 4.20802 8.75395 4.28155 8.9505 4.2791C9.24533 4.2742 9.5377 4.2791 9.83253 4.2791L9.83008 4.27665Z" fill="white"/>
<path id="Vector_6" d="M33.0873 5.29373C32.5467 5.29373 32.0062 5.29863 31.4657 5.29373C31.2544 5.29128 31.193 5.355 31.2347 5.57312C31.3232 6.04858 31.5468 6.39169 32.0431 6.51178C32.6032 6.64902 33.1069 6.55589 33.4804 6.09269C33.613 5.92604 33.7457 5.85741 33.9496 5.86722C34.1855 5.87947 34.4214 5.87702 34.6572 5.86722C34.8906 5.85741 34.9545 5.93094 34.8685 6.16131C34.5172 7.09507 33.8243 7.59013 32.8563 7.70042C32.0971 7.78864 31.3601 7.69061 30.7213 7.21761C29.9129 6.61961 29.6328 5.75938 29.6648 4.81092C29.6992 3.69826 30.1709 2.80372 31.2323 2.30866C33.0185 1.47784 34.957 2.66648 35.0356 4.62957C35.0675 5.39421 35.0749 5.28393 34.387 5.29128C33.9546 5.29618 33.5221 5.29128 33.0897 5.29128L33.0873 5.29373ZM32.3207 4.27665C32.6352 4.27665 32.9472 4.27665 33.2617 4.27665C33.4067 4.27665 33.4779 4.22763 33.446 4.06098C33.3502 3.56347 32.9374 3.23506 32.3846 3.23506C31.8072 3.23506 31.3478 3.57327 31.2446 4.05608C31.2053 4.24234 31.2814 4.2791 31.4387 4.27665C31.7335 4.27175 32.0259 4.27665 32.3207 4.27665Z" fill="white"/>
<path id="Vector_7" d="M24.2595 5.41142C24.2595 4.78402 24.2522 4.15661 24.262 3.52921C24.2645 3.31354 24.1908 3.24002 23.9721 3.23757C23.3701 3.23266 23.3701 3.22531 23.3726 2.61261C23.3726 2.34302 23.5094 2.20823 23.7829 2.20823C23.8714 2.20823 23.9598 2.20333 24.0483 2.20823C24.2006 2.21313 24.2571 2.13961 24.2595 1.99256C24.2595 1.78669 24.2424 1.58083 24.2915 1.37741C24.4733 0.627466 25.0531 0.201027 25.9671 0.171618C26.2005 0.164265 26.4364 0.201027 26.6722 0.213281C26.8246 0.220633 26.8762 0.308862 26.8762 0.443656C26.8762 0.669129 26.8762 0.894603 26.8762 1.12008C26.8762 1.29653 26.7902 1.36516 26.6182 1.35535C26.4708 1.348 26.3234 1.35045 26.1759 1.36025C26.0064 1.37251 25.8836 1.45338 25.8221 1.62249C25.6575 2.06608 25.7509 2.20333 26.2177 2.20823C26.8295 2.21558 26.8123 2.1053 26.8098 2.82093C26.8098 3.24002 26.8098 3.23757 26.3799 3.24247C25.6796 3.24982 25.7706 3.14934 25.7681 3.85027C25.7632 4.97763 25.7583 6.10745 25.773 7.23482C25.7755 7.52156 25.6772 7.61959 25.3971 7.59999C25.1416 7.58283 24.8836 7.57793 24.6305 7.59999C24.321 7.62694 24.2423 7.49705 24.2522 7.20786C24.2694 6.60986 24.2571 6.01187 24.2571 5.41387L24.2595 5.41142Z" fill="white"/>
<path id="Vector_8" d="M19.4514 1.4216C19.4514 2.19605 19.4514 2.20585 20.2106 2.2034C20.4637 2.2034 20.562 2.27938 20.5595 2.53671C20.5497 3.38224 20.6062 3.22784 19.8789 3.24009C19.4514 3.24744 19.4514 3.24009 19.4514 3.68123C19.4514 4.35765 19.449 5.03407 19.4514 5.71049C19.4539 6.333 19.616 6.48249 20.2327 6.41142C20.4661 6.38446 20.5644 6.45799 20.5546 6.69326C20.5472 6.85011 20.5546 7.00697 20.5546 7.16382C20.5546 7.59026 20.5325 7.61967 20.1173 7.64172C19.7143 7.66378 19.3114 7.65888 18.9134 7.58535C18.2942 7.47017 17.9478 7.06824 17.9453 6.44083C17.9404 5.48012 17.938 4.51941 17.9478 3.55869C17.9503 3.31851 17.8741 3.23274 17.6284 3.23764C17.0043 3.24499 17.0608 3.32097 17.0584 2.64455C17.0584 2.2083 17.0584 2.2083 17.4957 2.2083C17.7938 2.2083 17.9437 2.0588 17.9453 1.75981C17.9453 1.45591 17.9503 1.15201 17.9453 0.84811C17.9453 0.686357 18.0166 0.617735 18.1763 0.617735C18.5203 0.620186 18.8642 0.622637 19.2082 0.617735C19.3826 0.615284 19.4588 0.688808 19.4539 0.862815C19.449 1.04908 19.4539 1.23534 19.4539 1.4216H19.4514Z" fill="white"/>
<path id="Vector_9" d="M13.6679 64.0665C14.459 63.2479 15.9651 63.5199 16.3508 64.711C16.5744 65.3997 16.5793 66.081 16.2452 66.7378C15.7784 67.6544 14.6433 67.8873 13.8497 67.2329C13.8276 67.2157 13.8005 67.2035 13.7219 67.1569C13.7219 67.576 13.7219 67.9608 13.7219 68.3456C13.7219 68.821 13.7219 68.8259 13.2576 68.821C12.5401 68.8137 12.5942 68.9215 12.5942 68.1618C12.5942 66.8187 12.5942 65.4757 12.5942 64.1326C12.5942 63.6939 12.6065 63.6817 13.034 63.6817C13.1224 63.6817 13.2109 63.6866 13.2993 63.6817C13.5376 63.6645 13.7145 63.7136 13.6703 64.0665H13.6679ZM15.4074 65.5933C15.3852 65.3188 15.3484 65.0174 15.1666 64.7576C14.8619 64.3238 14.147 64.3287 13.8865 64.7821C13.5991 65.2821 13.5966 65.8114 13.8398 66.3335C13.9971 66.6717 14.2919 66.7722 14.6482 66.7427C14.9823 66.7158 15.1887 66.5271 15.2993 66.2281C15.3705 66.0345 15.4049 65.8311 15.4098 65.5933H15.4074Z" fill="white"/>
<path id="Vector_10" d="M14.5941 2.93607C14.9896 2.44836 15.4614 2.15916 16.0559 2.06603C16.5105 1.99496 16.6161 2.08564 16.6161 2.54394C16.6161 2.77922 16.6088 3.01449 16.6161 3.24977C16.6235 3.47769 16.5203 3.55122 16.309 3.5022C16.1641 3.47034 16.0166 3.46789 15.8692 3.48995C15.11 3.60023 14.6899 4.07324 14.6702 4.882C14.6506 5.65645 14.6531 6.4309 14.6702 7.20536C14.6752 7.4921 14.5941 7.61954 14.2894 7.59748C13.9872 7.57543 13.6801 7.58768 13.3755 7.59258C13.1887 7.59503 13.1101 7.51661 13.1101 7.33035C13.1126 5.70302 13.1126 4.07569 13.1101 2.45081C13.1101 2.2768 13.1863 2.20328 13.3607 2.20573C13.6752 2.21063 13.9897 2.21553 14.3042 2.20328C14.5253 2.19347 14.6088 2.28906 14.599 2.49737C14.5916 2.64197 14.599 2.78902 14.599 2.93362L14.5941 2.93607Z" fill="white"/>
<path id="Vector_11" d="M27.4782 65.7109C27.488 66.2379 27.4389 66.7697 27.5519 67.2917C27.5863 67.4559 27.52 67.5098 27.375 67.5123C27.149 67.5123 26.9229 67.5147 26.6969 67.5098C26.6404 67.5098 26.5495 67.4878 26.5372 67.4559C26.4266 67.125 26.2669 67.3334 26.1122 67.4044C25.6085 67.6397 25.0876 67.674 24.5668 67.4853C24.1147 67.3236 23.8985 66.9657 23.896 66.4511C23.8936 65.9462 24.0975 65.6227 24.5446 65.434C24.9132 65.2796 25.3087 65.2698 25.6969 65.2061C25.8419 65.1816 25.9869 65.1546 26.1269 65.1129C26.2694 65.0737 26.3677 64.9781 26.38 64.8213C26.3922 64.6522 26.3308 64.5149 26.1785 64.4243C25.8173 64.2135 25.3063 64.3581 25.1294 64.738C25.0753 64.8532 25.009 64.912 24.8886 64.9144C24.6626 64.9193 24.4365 64.9144 24.2105 64.9169C24.0311 64.9169 23.9968 64.809 24.0287 64.662C24.0999 64.3189 24.2695 64.0346 24.5864 63.8728C25.3481 63.4783 26.1343 63.4807 26.9205 63.792C27.2939 63.939 27.4782 64.2429 27.4782 64.6473C27.4782 65.0002 27.4782 65.3531 27.4782 65.706V65.7109ZM26.3873 66.0173C26.3284 65.9609 26.466 65.7428 26.2841 65.7747C25.9205 65.8384 25.5372 65.8335 25.2031 66.0197C25.0311 66.1153 24.9771 66.282 25.0016 66.4731C25.0262 66.6594 25.1368 66.7623 25.3186 66.8138C25.9082 66.9853 26.3701 66.6594 26.3898 66.0197L26.3873 66.0173Z" fill="white"/>
<path id="Vector_12" d="M7.25524 67.5907C6.04152 67.5907 5.26514 66.8162 5.26514 65.6055C5.26514 64.3973 6.05381 63.5861 7.23804 63.5763C8.40999 63.5665 9.22569 64.3875 9.23306 65.5859C9.24043 66.7893 8.45176 67.5907 7.25524 67.5907ZM8.10533 65.6251C8.09796 65.4291 8.10533 65.2354 8.04145 65.0443C7.91124 64.6571 7.65572 64.461 7.26015 64.4561C6.82774 64.4512 6.57713 64.6203 6.45428 65.0394C6.34618 65.4021 6.35109 65.7771 6.44691 66.1422C6.55502 66.5491 6.83265 66.7476 7.2405 66.75C7.64835 66.75 7.91369 66.5515 8.04391 66.1521C8.10042 65.9805 8.09305 65.804 8.10287 65.6276L8.10533 65.6251Z" fill="white"/>
<path id="Vector_13" d="M38.3722 64.1055C38.839 63.6644 39.296 63.5272 39.8291 63.6105C40.4237 63.7036 40.7726 64.0075 40.8586 64.6129C40.9863 65.5 40.9052 66.3921 40.9151 67.2842C40.9151 67.4215 40.8463 67.5048 40.7013 67.5097C40.6817 67.5097 40.662 67.5122 40.6423 67.5122C39.6252 67.5122 39.807 67.5979 39.7947 66.7352C39.7873 66.2255 39.7972 65.7157 39.7898 65.2059C39.7824 64.728 39.5859 64.4854 39.21 64.4683C38.7677 64.4487 38.5171 64.6717 38.4483 65.1447C38.3525 65.8186 38.4115 66.4951 38.4066 67.169C38.4066 67.4215 38.3279 67.5195 38.07 67.5146C37.1634 67.4999 37.3181 67.593 37.3108 66.772C37.3034 65.8603 37.3157 64.9486 37.3034 64.0369C37.3009 63.7747 37.3796 63.6472 37.6547 63.6767C37.7628 63.6889 37.8709 63.6816 37.9791 63.6767C38.2149 63.6693 38.4385 63.6766 38.3722 64.1006V64.1055Z" fill="white"/>
<path id="Vector_14" d="M34.7236 67.5907C33.5123 67.5907 32.7605 66.8211 32.7605 65.5859C32.7605 64.3875 33.5418 63.5861 34.7162 63.5787C35.898 63.5689 36.7333 64.4144 36.7235 65.6104C36.7137 66.8186 35.9324 67.5931 34.7211 67.5931L34.7236 67.5907ZM35.6007 65.6251C35.6007 65.4119 35.5958 65.2379 35.5393 65.0663C35.3894 64.6178 35.1314 64.4365 34.6572 64.4561C34.269 64.4732 34.0184 64.7012 33.9152 65.1276C33.8268 65.4903 33.8293 65.8481 33.957 66.1986C34.0995 66.5956 34.3428 66.7549 34.7653 66.7451C35.1535 66.7353 35.4017 66.5491 35.527 66.1692C35.5884 65.9805 35.6105 65.7869 35.6032 65.6251H35.6007Z" fill="white"/>
<path id="Vector_15" d="M18.707 67.5906C17.5105 67.5906 16.7635 66.821 16.7635 65.5981C16.7635 64.3751 17.5448 63.5737 18.734 63.5762C19.9059 63.5811 20.7192 64.4045 20.7266 65.5932C20.7315 66.8088 19.9428 67.5906 18.707 67.5906ZM19.5964 65.6005C19.5964 65.5221 19.6013 65.4437 19.5964 65.3653C19.5497 64.8114 19.2622 64.4781 18.8175 64.456C18.2647 64.4291 18.0117 64.6472 17.8888 65.2574C17.8249 65.5809 17.847 65.902 17.9625 66.2132C18.0977 66.576 18.3409 66.7426 18.7242 66.7451C19.1173 66.7451 19.3851 66.5662 19.5153 66.2059C19.5865 66.0098 19.6136 65.8064 19.5988 65.5981L19.5964 65.6005Z" fill="white"/>
<path id="Vector_16" d="M29.2472 4.93361C29.2472 5.70806 29.2398 6.48251 29.2521 7.25451C29.257 7.50695 29.1759 7.61478 28.913 7.59762C28.6477 7.58047 28.3823 7.59517 28.117 7.59517C27.7067 7.59517 27.6993 7.59027 27.6993 7.18834C27.6993 5.8355 27.6993 4.48511 27.6993 3.13227C27.6993 2.9166 27.7042 2.70093 27.6993 2.48526C27.6944 2.29165 27.7706 2.19852 27.977 2.20342C28.2816 2.21322 28.5863 2.21812 28.8909 2.20342C29.1563 2.18871 29.257 2.27939 29.2521 2.55143C29.2373 3.34549 29.2472 4.13955 29.2472 4.93116V4.93361Z" fill="white"/>
<path id="Vector_17" d="M21.3186 4.87716C21.3186 4.10271 21.326 3.32825 21.3137 2.55625C21.3088 2.28421 21.4071 2.18863 21.6749 2.20579C21.9574 2.22294 22.2449 2.22294 22.5299 2.20579C22.7879 2.19108 22.8739 2.28912 22.8714 2.544C22.8616 3.71058 22.8665 4.87471 22.8665 6.04129C22.8665 6.46282 22.8616 6.88436 22.8665 7.3059C22.8714 7.52157 22.7805 7.6049 22.5668 7.59754C22.2523 7.58774 21.9378 7.58529 21.6233 7.59754C21.3924 7.60735 21.3113 7.51177 21.3113 7.28629C21.3187 6.48243 21.3137 5.67857 21.3137 4.87716H21.3186Z" fill="white"/>
<path id="Vector_18" d="M28.4585 65.6913C28.4585 65.3775 28.4536 65.0638 28.4585 64.7501C28.4634 64.5614 28.4094 64.4389 28.1932 64.4634C27.9082 64.4953 27.8467 64.3482 27.8492 64.0958C27.8492 63.8384 27.8664 63.6399 28.203 63.6791C28.3995 63.7012 28.461 63.5909 28.456 63.412C28.4487 63.2257 28.4634 63.0395 28.456 62.8532C28.4462 62.6351 28.547 62.5591 28.7583 62.5616C29.7115 62.5738 29.5838 62.4611 29.5813 63.336C29.5813 63.6105 29.6771 63.7061 29.9449 63.6865C30.0629 63.6767 30.2373 63.635 30.284 63.787C30.343 63.9806 30.3651 64.2036 30.2668 64.3899C30.2029 64.51 30.0309 64.4683 29.9081 64.4609C29.6624 64.4438 29.5789 64.5467 29.5838 64.7869C29.5961 65.2771 29.5838 65.7672 29.5887 66.2574C29.5911 66.5931 29.6722 66.6863 30.0113 66.6667C30.2471 66.6544 30.3184 66.7206 30.3159 66.9534C30.311 67.5318 30.3208 67.5318 29.741 67.5318C29.6722 67.5318 29.6034 67.5318 29.5346 67.5318C28.7681 67.5244 28.461 67.2181 28.4585 66.4559C28.4585 66.201 28.4585 65.9461 28.4585 65.6913Z" fill="white"/>
<path id="Vector_19" d="M22.3555 64.2134C22.6454 63.8483 22.9746 63.6375 23.3948 63.586C23.6257 63.5566 23.7879 63.6179 23.7609 63.8973C23.7584 63.9267 23.7609 63.9561 23.7609 63.9855C23.7641 64.3842 23.5717 64.6015 23.1835 64.6374C22.7265 64.6791 22.4194 65.0197 22.4022 65.5491C22.385 66.0785 22.385 66.6079 22.3973 67.1348C22.4046 67.4093 22.3162 67.5245 22.0287 67.5171C21.159 67.5 21.272 67.5955 21.2671 66.7672C21.2622 65.8653 21.2745 64.9634 21.2622 64.0639C21.2573 63.7796 21.3359 63.6301 21.643 63.6743C21.702 63.6816 21.7609 63.6743 21.8199 63.6743C22.1491 63.6743 22.3277 63.8532 22.3555 64.211V64.2134Z" fill="white"/>
<path id="Vector_20" d="M10.8595 64.2232C11.1421 63.8605 11.4615 63.6472 11.8742 63.5909C12.1986 63.5443 12.287 63.6178 12.2968 63.9364C12.2968 63.9658 12.2968 63.9953 12.2968 64.0247C12.2985 64.4086 12.1109 64.612 11.7342 64.6349C11.233 64.6643 10.9161 65.0417 10.8989 65.6618C10.8841 66.1716 10.8866 66.6813 10.8989 67.1911C10.9038 67.4337 10.8129 67.522 10.5721 67.5195C9.64583 67.5072 9.8129 67.5955 9.80553 66.7867C9.7957 65.8652 9.81044 64.9437 9.79815 64.0198C9.7957 63.7698 9.86941 63.6472 10.1323 63.6767C10.1913 63.684 10.2502 63.6767 10.3092 63.6767C10.645 63.6767 10.8292 63.8588 10.862 64.2232H10.8595Z" fill="white"/>
<path id="Vector_21" d="M31.0455 65.603C31.0455 65.0736 31.0529 64.5443 31.0431 64.0149C31.0382 63.7821 31.107 63.6742 31.3576 63.6791C32.2814 63.6963 32.129 63.586 32.1364 64.4315C32.1438 65.3334 32.1266 66.2353 32.1438 67.1372C32.1487 67.4411 32.0381 67.5269 31.7507 67.5195C30.9129 67.5024 31.0578 67.5783 31.048 66.8088C31.0406 66.4069 31.048 66.0049 31.048 65.603H31.0455Z" fill="white"/>
<path id="Vector_22" d="M28.4757 1.45838C27.5961 1.44858 27.7066 1.56131 27.6993 0.671673C27.6944 0.166809 27.6993 0.166809 28.2005 0.166809C28.456 0.166809 28.7091 0.171711 28.9646 0.166809C29.1587 0.164358 29.2545 0.235431 29.2471 0.441298C29.2373 0.683927 29.2373 0.929007 29.2471 1.17409C29.257 1.39711 29.1488 1.46818 28.9449 1.46083C28.7877 1.45593 28.6304 1.46083 28.4757 1.46083V1.45838Z" fill="white"/>
<path id="Vector_23" d="M22.0926 1.45831C21.2032 1.45341 21.3285 1.54409 21.3187 0.69366C21.3187 0.605431 21.3211 0.517203 21.3187 0.428974C21.3137 0.26232 21.3899 0.169189 21.5619 0.169189C21.9157 0.169189 22.2695 0.169189 22.6233 0.169189C22.7953 0.169189 22.8665 0.26232 22.8665 0.431425C22.8641 0.676505 22.8591 0.921584 22.8665 1.16666C22.8739 1.38479 22.7658 1.46566 22.5619 1.46076C22.4046 1.45586 22.2474 1.46076 22.0901 1.46076L22.0926 1.45831Z" fill="white"/>
<path id="Vector_24" d="M40.6963 53.2584C40.6963 53.9593 40.1337 54.5206 39.4458 54.5108C38.7406 54.501 38.1952 53.9495 38.1976 53.2535C38.2026 52.5599 38.7603 52.0183 39.4654 52.0208C40.1484 52.0208 40.6963 52.5746 40.6939 53.2584H40.6963ZM40.0919 53.9765C40.3818 53.7608 40.404 53.4496 40.3818 53.1285C40.3548 52.7021 40.0207 52.3394 39.6104 52.283C39.1337 52.2168 38.7087 52.4619 38.5539 52.8932C38.3893 53.3442 38.5588 53.876 38.9421 54.1186C39.3106 54.3515 39.7848 54.2927 40.0944 53.974L40.0919 53.9765Z" fill="white"/>
<path id="Vector_25" d="M31.5935 63.1719C31.0702 63.1719 30.8982 62.922 31.0554 62.4048C31.0874 62.297 31.1586 62.2725 31.252 62.2676C31.3699 62.2627 31.4878 62.2627 31.6033 62.2627C32.1438 62.2627 32.1291 62.2627 32.1438 62.8117C32.1512 63.0984 32.0456 63.2063 31.7679 63.1719C31.709 63.1646 31.65 63.1719 31.591 63.1719H31.5935Z" fill="white"/>
<path id="Vector_26" d="M25.9868 30.7991C26.1883 30.8604 26.3848 30.9143 26.5765 30.9756C28.8614 31.7182 30.2594 33.6421 30.3208 36.0414C30.3577 37.4825 30.08 38.8304 29.3037 40.0534C28.1858 41.8106 26.5347 42.7272 24.5078 43.0335C23.9156 43.1242 23.3162 43.1414 22.7142 43.1414C19.2721 43.1414 15.8299 43.1414 12.3878 43.1414C12.0815 43.1414 11.9283 42.9902 11.9283 42.688C11.9283 35.2228 11.9283 27.7577 11.9283 20.2926C11.9283 19.9789 12.0848 19.8212 12.3976 19.8196C15.653 19.8196 18.9084 19.8098 22.1639 19.8343C23.1737 19.8416 24.1884 19.9102 25.1785 20.148C27.2939 20.6553 28.6231 22.013 29.1562 24.0692C29.6943 26.1524 29.2643 28.0591 27.7042 29.6301C27.2865 30.0516 26.7829 30.3629 26.2522 30.6276C26.1686 30.6692 26.063 30.6815 25.9917 30.7967L25.9868 30.7991ZM19.3777 40.4357V40.4259C20.6946 40.4259 22.014 40.4553 23.3284 40.4161C24.3284 40.3867 25.2399 40.0509 25.9721 39.3426C27.0187 38.328 27.2792 37.0585 27.1096 35.6664C26.9475 34.3307 26.1957 33.4485 24.9647 32.9509C24.2277 32.6519 23.4513 32.5122 22.6626 32.5073C20.2548 32.4902 17.8446 32.5024 15.4368 32.4926C15.1715 32.4926 15.0806 32.5662 15.0806 32.8407C15.0904 35.2522 15.0904 37.6663 15.0806 40.0779C15.0806 40.3671 15.1764 40.4455 15.454 40.443C16.7611 40.4308 18.0682 40.4381 19.3777 40.4381V40.4357ZM15.0855 26.1475C15.0855 27.2455 15.0953 28.3459 15.0781 29.4438C15.0732 29.7428 15.1592 29.8262 15.4589 29.8262C17.4662 29.8139 19.4711 29.8311 21.4784 29.8139C22.2351 29.8066 22.9918 29.7355 23.724 29.5198C24.9107 29.1743 25.7657 28.4856 26.0654 27.2332C26.2055 26.6524 26.1981 26.0593 26.1416 25.476C26.0163 24.1893 25.3701 23.2801 24.1122 22.8463C23.3481 22.5841 22.5521 22.5081 21.7585 22.4983C19.6431 22.4738 17.5301 22.4909 15.4147 22.4811C15.1567 22.4811 15.0757 22.5596 15.0781 22.8169C15.0904 23.9246 15.083 25.0349 15.083 26.1426L15.0855 26.1475Z" fill="white"/>
</g>
<defs>
<clipPath id="clip0_258_870">
<rect width="40.947" height="68.8258" fill="white"/>
</clipPath>
</defs>
</svg>
