<svg width="26" height="25" viewBox="0 0 26 25" fill="none" xmlns="http://www.w3.org/2000/svg">
<g id="Layer_1" clip-path="url(#clip0_258_595)">
<path id="Vector" d="M26 8.62873C25.4352 8.63376 24.871 8.63992 24.3063 8.64384C23.9925 8.64608 23.6793 8.64384 23.3518 8.64384C23.3479 8.55259 23.3422 8.48373 23.3416 8.41431C23.341 7.78281 23.3376 7.15188 23.3439 6.52039C23.3456 6.37651 23.3159 6.31101 23.1499 6.31661C22.657 6.33284 22.7477 6.26062 22.7432 6.71353C22.7374 7.28008 22.742 7.8472 22.7414 8.41375C22.7414 8.48317 22.7357 8.55203 22.7317 8.63152H20.3934C20.3899 8.56434 20.3831 8.4966 20.3831 8.42886C20.3825 7.79737 20.3768 7.16644 20.3865 6.53494C20.3888 6.36699 20.3449 6.30821 20.1675 6.31549C19.7704 6.33228 19.8115 6.26846 19.8103 6.66986C19.8081 7.25601 19.8052 7.84216 19.8126 8.4283C19.8149 8.59513 19.7613 8.64888 19.5867 8.64664C18.9364 8.63712 18.2855 8.63824 17.6345 8.64664C17.4731 8.64888 17.42 8.60521 17.4223 8.4423C17.4309 7.80465 17.4218 7.167 17.4292 6.52934C17.4309 6.37651 17.3961 6.30989 17.2238 6.31661C16.7977 6.33228 16.8633 6.27238 16.861 6.6805C16.8576 7.26665 16.8553 7.85279 16.8633 8.43894C16.8655 8.59849 16.8142 8.64888 16.6505 8.64664C15.9933 8.6388 15.3355 8.63824 14.6783 8.64664C14.5112 8.64888 14.4661 8.5929 14.4678 8.43614C14.4752 7.80521 14.4644 7.17371 14.4747 6.54278C14.4775 6.36363 14.4233 6.30877 14.2419 6.31605C13.8551 6.33172 13.9025 6.27854 13.9019 6.64523C13.9008 10.1302 13.9008 13.6146 13.9042 17.0996C13.9042 17.1808 13.9339 17.3269 13.9664 17.3314C14.1193 17.3526 14.2784 17.3414 14.433 17.3235C14.4524 17.3213 14.469 17.2099 14.4695 17.1489C14.4724 16.5112 14.4764 15.8736 14.4678 15.2359C14.4655 15.064 14.5123 14.9969 14.6983 14.9996C15.3424 15.0086 15.9864 15.0086 16.6305 14.9996C16.8125 14.9974 16.8661 15.0573 16.8638 15.2331C16.8547 15.8708 16.865 16.5084 16.857 17.1461C16.8547 17.3067 16.9049 17.3582 17.0692 17.3521C17.4856 17.3375 17.4235 17.398 17.4257 17.0027C17.4292 16.4037 17.4309 15.8047 17.4235 15.2057C17.4218 15.0562 17.4674 14.9996 17.6231 15.0008C18.2803 15.0058 18.9381 15.0064 19.5953 15.0008C19.7584 14.9996 19.8143 15.0601 19.8126 15.2169C19.8069 15.8545 19.8149 16.4922 19.8075 17.1298C19.8058 17.2916 19.844 17.3605 20.026 17.3532C20.4447 17.3364 20.3808 17.3969 20.3831 17.0039C20.3865 16.4116 20.3899 15.8187 20.3802 15.2264C20.3774 15.0612 20.4213 14.9985 20.5976 15.0002C21.2417 15.008 21.8857 15.008 22.5304 15.0002C22.7084 14.998 22.7489 15.064 22.7466 15.2275C22.7374 15.8652 22.7471 16.5028 22.7397 17.1405C22.738 17.2933 22.7717 17.3571 22.9445 17.3538C23.3422 17.3454 23.3422 17.3538 23.3422 16.9658C23.3422 16.3858 23.3479 15.8064 23.3387 15.2269C23.3359 15.0618 23.3792 14.9991 23.5561 15.0008C24.3713 15.0086 25.1859 15.0052 26.0011 15.0064V14.4264C25.1814 14.4309 24.3622 14.4314 23.5424 14.4437C23.3701 14.4465 23.3376 14.3833 23.3393 14.2316C23.3467 13.595 23.3484 12.9585 23.3382 12.3225C23.3353 12.1518 23.3906 12.1003 23.5606 12.1019C24.3741 12.1092 25.1876 12.1064 26.0011 12.1075V11.5276C25.9692 11.5326 25.9367 11.5421 25.9047 11.5421C25.0964 11.5432 24.288 11.5432 23.4796 11.5421C23.4368 11.5421 23.3941 11.5276 23.3547 11.5208V9.23167C23.6804 9.23167 23.9942 9.22999 24.3074 9.23167C24.8716 9.23559 25.4364 9.24174 26.0006 9.24678V8.62817L26 8.62873ZM15.6618 14.4404C15.327 14.4404 14.9921 14.4365 14.6572 14.4426C14.5272 14.4449 14.4678 14.4107 14.469 14.2707C14.4741 13.6079 14.4741 12.9456 14.469 12.2828C14.4678 12.1467 14.5226 12.1031 14.6549 12.1036C15.331 12.107 16.0075 12.1064 16.6836 12.1042C16.8039 12.1042 16.8621 12.1411 16.8615 12.271C16.8576 12.94 16.8576 13.609 16.8615 14.2786C16.8621 14.4068 16.8102 14.4449 16.6858 14.4426C16.3447 14.437 16.003 14.4409 15.6618 14.4409V14.4404ZM18.6158 14.4404C18.2809 14.4404 17.946 14.4365 17.6117 14.4426C17.4811 14.4449 17.4229 14.4101 17.424 14.2696C17.4297 13.6073 17.4297 12.9445 17.424 12.2822C17.4229 12.1445 17.4782 12.1031 17.6089 12.1036C18.2786 12.1064 18.9478 12.1064 19.6175 12.1036C19.7464 12.1036 19.8115 12.1467 19.8109 12.2822C19.8081 12.9445 19.8075 13.6073 19.8109 14.2696C19.8115 14.4068 19.7521 14.4449 19.6204 14.4421C19.2855 14.4353 18.9506 14.4398 18.6163 14.4398L18.6158 14.4404ZM22.742 13.286C22.742 13.6073 22.7363 13.9292 22.7449 14.2506C22.7483 14.3861 22.7181 14.4454 22.5623 14.4437C21.8931 14.4359 21.2234 14.4381 20.5542 14.4426C20.4304 14.4432 20.3802 14.4101 20.3814 14.2803C20.3865 13.6113 20.3871 12.9428 20.3814 12.2738C20.3802 12.1423 20.4339 12.1047 20.5542 12.1053C21.2234 12.107 21.8931 12.1075 22.5623 12.1047C22.6935 12.1042 22.7489 12.1456 22.7454 12.2833C22.7369 12.6176 22.7426 12.9523 22.7426 13.2866L22.742 13.286ZM15.6698 9.23167C16.0047 9.23167 16.3401 9.23615 16.675 9.22943C16.8074 9.22663 16.8633 9.26414 16.8621 9.40242C16.857 10.0591 16.857 10.7152 16.8621 11.3719C16.8633 11.5096 16.8091 11.5466 16.6756 11.5455C15.999 11.5404 15.3224 11.541 14.6458 11.5455C14.522 11.546 14.4684 11.5119 14.469 11.3826C14.473 10.7197 14.473 10.0569 14.469 9.39346C14.4684 9.26526 14.5203 9.22775 14.6452 9.22999C14.987 9.23615 15.3281 9.23223 15.6698 9.23223V9.23167ZM18.6032 9.23167C18.9444 9.23167 19.2861 9.23727 19.6272 9.22887C19.7664 9.22551 19.812 9.27701 19.8109 9.4069C19.8075 10.063 19.8081 10.7186 19.8103 11.3747C19.8103 11.4934 19.7721 11.546 19.6392 11.5449C18.9569 11.5399 18.274 11.5399 17.5918 11.5449C17.4605 11.546 17.4235 11.4996 17.4246 11.377C17.4292 10.7147 17.4297 10.0524 17.4246 9.38954C17.4235 9.25742 17.4777 9.22719 17.5997 9.22943C17.9346 9.23503 18.2689 9.23167 18.6038 9.23167H18.6032ZM22.7295 9.24286V11.5309H20.3951V9.24286H22.7295Z" fill="#1F1F1F"/>
<path id="Vector_2" d="M12.7376 0C9.33526 0 6.13661 1.3005 3.73091 3.66132C1.32522 6.02215 0 9.16114 0 12.5C0 15.8389 1.32522 18.9779 3.73091 21.3387C6.13661 23.6995 9.33526 25 12.7376 25C16.6174 25 20.2376 23.2959 22.6713 20.3254C22.7106 20.2772 22.7032 20.2067 22.6536 20.1681C22.6045 20.1294 22.5326 20.1367 22.4933 20.1854C20.1036 23.1027 16.5478 24.7761 12.7376 24.7761C9.39631 24.7761 6.2547 23.4991 3.89236 21.1802C1.52945 18.862 0.22819 15.779 0.22819 12.5C0.22819 9.22105 1.52945 6.13803 3.89236 3.81976C6.25527 1.50092 9.39631 0.223934 12.7376 0.223934C16.3481 0.223934 19.783 1.75564 22.1607 4.4255C22.2023 4.47196 22.2742 4.477 22.3216 4.43613C22.3689 4.39527 22.3741 4.32473 22.3324 4.27826C19.9113 1.55914 16.4143 0 12.7376 0Z" fill="#1F1F1F"/>
</g>
<defs>
<clipPath id="clip0_258_595">
<rect width="26" height="25" fill="white" transform="matrix(1 0 0 -1 0 25)"/>
</clipPath>
</defs>
</svg>
