<svg width="38" height="70" viewBox="0 0 38 70" fill="none" xmlns="http://www.w3.org/2000/svg">
<g id="Layer_1" clip-path="url(#clip0_258_897)">
<path id="Vector" d="M19.4542 62.603C25.3879 62.603 31.3217 62.603 37.2579 62.603C37.5846 62.603 37.7487 62.7621 37.7503 63.0805C37.7503 63.4788 37.5543 63.678 37.1624 63.678C25.3438 63.678 13.5228 63.678 1.70429 63.678C1.63569 63.678 1.5671 63.6706 1.4985 63.678C1.2192 63.7098 1.11876 63.5947 1.12611 63.3082C1.1506 62.4854 1.03791 62.603 1.82924 62.603C7.70421 62.6005 13.5792 62.603 19.4542 62.603Z" fill="white"/>
<path id="Vector_2" d="M19.0867 48.3293C18.6555 49.4239 18.2219 50.516 17.798 51.613C17.7147 51.831 17.6045 51.9461 17.3472 51.9338C17.1292 51.924 17.0141 51.8555 16.9357 51.6473C16.5584 50.658 16.1639 49.6761 15.7768 48.6917C15.7278 48.5668 15.6739 48.442 15.571 48.3244C15.571 48.6109 15.571 48.8999 15.571 49.1864C15.571 49.9797 15.5637 50.7756 15.5759 51.569C15.5808 51.8285 15.5073 51.9534 15.228 51.9314C15.0149 51.9142 14.7969 51.9142 14.5813 51.9314C14.3216 51.951 14.2432 51.8457 14.2432 51.591C14.253 50.0238 14.2481 48.4542 14.2481 46.887C14.2481 46.7303 14.2505 46.5736 14.2481 46.4169C14.2481 46.27 14.3167 46.2014 14.4637 46.2014C14.9242 46.2014 15.3848 46.2038 15.8454 46.2014C16.039 46.2014 16.088 46.3336 16.1419 46.4732C16.4996 47.3866 16.8573 48.2975 17.2149 49.2108C17.2492 49.3015 17.2909 49.3872 17.3301 49.4827C17.4526 49.4361 17.455 49.3259 17.4869 49.2427C17.8446 48.3416 18.2047 47.4404 18.5453 46.532C18.6408 46.2797 18.7731 46.1818 19.0451 46.1965C19.437 46.2185 19.829 46.2087 20.221 46.2014C20.4244 46.1965 20.5028 46.2846 20.5003 46.4805C20.5003 48.2069 20.5003 49.9308 20.5003 51.6571C20.5003 51.853 20.4219 51.9436 20.2186 51.9363C19.9638 51.9265 19.709 51.924 19.4542 51.9363C19.2019 51.9509 19.1357 51.8334 19.1357 51.6032C19.1431 50.6237 19.1382 49.6418 19.1382 48.6623C19.1382 48.5546 19.1382 48.4493 19.1382 48.3416C19.1186 48.3416 19.1014 48.3391 19.0818 48.3367L19.0867 48.3293Z" fill="white"/>
<path id="Vector_3" d="M31.5226 32.7533C30.8023 32.7484 30.18 32.4986 29.6704 31.9893C28.2519 30.5788 26.8432 29.1586 25.4198 27.753C25.2238 27.5596 25.2581 27.4543 25.4369 27.2878C26.461 26.3279 28.0584 26.3842 29.1265 27.4445C30.5279 28.8304 31.917 30.2287 33.311 31.622C33.3257 31.6367 33.338 31.6514 33.3527 31.6636C33.5168 31.7934 33.4997 31.9109 33.3429 32.0431C32.8186 32.4913 32.2257 32.7631 31.5201 32.7533H31.5226Z" fill="white"/>
<path id="Vector_4" d="M11.3963 12.5782C10.6124 12.5978 9.99252 12.3211 9.47803 11.8069C8.08157 10.416 6.69 9.02271 5.29598 7.62939C5.01913 7.35269 5.02158 7.31351 5.32538 7.06374C6.39355 6.18956 7.87332 6.23118 8.86065 7.19842C10.3037 8.61132 11.7222 10.0487 13.1554 11.469C13.322 11.633 13.3244 11.7432 13.1456 11.895C12.6262 12.3358 12.048 12.6101 11.3939 12.5782H11.3963Z" fill="white"/>
<path id="Vector_5" d="M6.10206 18.1956C7.11143 18.1956 8.12081 18.1956 9.13019 18.1956C9.48053 18.1956 9.52218 18.2446 9.47808 18.5899C9.29434 20.0713 8.22861 21.0239 6.72679 21.0288C4.79624 21.0337 2.86323 21.0288 0.932671 21.0288C0.54558 21.0288 0.51618 20.992 0.54068 20.6027C0.623978 19.3049 1.76565 18.2103 3.06902 18.1956C4.0784 18.1834 5.08778 18.1956 6.09716 18.1956H6.10206Z" fill="white"/>
<path id="Vector_6" d="M20.6938 6.41493C20.6938 7.42379 20.6938 8.43266 20.6938 9.44153C20.6938 9.80393 20.6742 9.81863 20.3067 9.80638C19.0034 9.76965 17.8764 8.58693 17.8641 7.19117C17.8445 5.19302 17.8617 3.19488 17.8568 1.19674C17.8568 0.92248 17.9523 0.844122 18.2292 0.878404C19.7555 1.06451 20.6938 2.1101 20.6938 3.65279C20.6938 4.5735 20.6938 5.49421 20.6938 6.41493Z" fill="white"/>
<path id="Vector_7" d="M20.6938 34.9717C20.6938 35.9806 20.6865 36.9895 20.6987 37.9983C20.7036 38.2824 20.5909 38.3485 20.3312 38.3363C18.9862 38.2628 17.8788 37.1291 17.8641 35.7333C17.8421 33.7254 17.8617 31.7174 17.8543 29.7095C17.8543 29.423 17.9842 29.3593 18.239 29.3862C19.6771 29.5307 20.6889 30.64 20.6938 32.0921C20.6963 33.052 20.6938 34.0118 20.6938 34.9717Z" fill="white"/>
<path id="Vector_8" d="M34.6194 18.1955C35.6189 18.1955 36.6185 18.1955 37.6181 18.1955C37.9954 18.1955 38.0101 18.2151 38.0003 18.5996C37.9709 19.7333 36.964 20.8328 35.8051 20.9797C35.5528 21.0115 35.298 21.0287 35.0432 21.0287C33.191 21.0336 31.3389 21.0311 29.4867 21.0287C29.0874 21.0287 29.0702 21.0091 29.0825 20.6148C29.1241 19.3293 30.2928 18.2078 31.6206 18.1955C32.6202 18.1857 33.6198 18.1955 34.6194 18.1955Z" fill="white"/>
<path id="Vector_9" d="M2.19922 26.8248C2.27272 25.7253 2.77496 24.8731 3.82843 24.4299C5.67814 23.6488 7.545 22.9019 9.39716 22.1306C9.6544 22.0229 9.74015 22.1086 9.81855 22.3387C10.2718 23.6806 9.63725 25.0764 8.28733 25.642C7.01336 26.1759 5.73449 26.695 4.45562 27.2215C3.88478 27.4565 3.30904 27.6818 2.74311 27.9267C2.53731 28.0173 2.44421 27.9708 2.37561 27.7651C2.27517 27.4663 2.21637 27.1602 2.19922 26.8223V26.8248Z" fill="white"/>
<path id="Vector_10" d="M26.5345 36.6785C25.4467 36.605 24.5819 36.1446 24.1409 35.1137C23.3348 33.2331 22.5778 31.3329 21.7914 29.4425C21.7007 29.2222 21.7914 29.1487 21.9751 29.0777C23.1854 28.5977 24.6529 29.1707 25.2262 30.3902C25.5667 31.115 25.8509 31.8692 26.1572 32.6112C26.6325 33.7596 27.1053 34.9105 27.5757 36.0614C27.7129 36.3944 27.6982 36.4165 27.3503 36.534C27.0882 36.6221 26.8162 36.6491 26.5369 36.6809L26.5345 36.6785Z" fill="white"/>
<path id="Vector_11" d="M3.92887 11.8926C4.27186 11.8926 4.5977 11.9538 4.90885 12.0811C6.77326 12.8574 8.63521 13.6385 10.5021 14.4074C10.7667 14.5176 10.7446 14.6523 10.6466 14.858C10.0611 16.0946 8.59602 16.6553 7.27549 16.1239C6.04807 15.6293 4.8329 15.1077 3.61038 14.5984C2.97829 14.3339 2.3462 14.0646 1.70922 13.8099C1.48872 13.7218 1.45687 13.6091 1.55977 13.4059C2.04976 12.4264 2.85579 11.9514 3.92887 11.8901V11.8926Z" fill="white"/>
<path id="Vector_12" d="M26.9926 4.25999C26.9926 4.6273 26.9167 4.97991 26.7746 5.31783C26.02 7.12498 25.2654 8.93212 24.5108 10.7393C24.3418 11.1433 24.332 11.1433 23.9424 10.9303C22.7469 10.2789 22.2348 8.89294 22.7518 7.62941C23.5162 5.7635 24.305 3.90493 25.0743 2.04146C25.1674 1.81863 25.2703 1.79659 25.4712 1.88964C26.3679 2.29613 26.9877 3.25357 26.9902 4.25999H26.9926Z" fill="white"/>
<path id="Vector_13" d="M15.7229 10.2814C14.5763 10.2814 13.6674 9.66927 13.2264 8.60164C12.6262 7.15445 12.0333 5.70482 11.438 4.25518C11.2787 3.86584 11.1293 3.4716 10.9553 3.08715C10.8573 2.87411 10.9088 2.77861 11.1268 2.70026C12.4743 2.21051 13.9149 2.85942 14.4832 4.22825C14.9855 5.44036 15.4804 6.65491 15.9802 7.86947C16.2374 8.49389 16.4873 9.12321 16.7543 9.74273C16.8474 9.95822 16.8082 10.0611 16.5828 10.1296C16.2913 10.2178 15.9998 10.2961 15.7254 10.2839L15.7229 10.2814Z" fill="white"/>
<path id="Vector_14" d="M15.9948 30.5738C16.0169 30.9705 15.9115 31.3353 15.7621 31.6904C15.0198 33.4706 14.275 35.2508 13.5326 37.0286C13.3562 37.4498 13.3489 37.4522 12.9422 37.2367C11.8152 36.6417 11.2468 35.2655 11.7197 34.0754C12.489 32.1385 13.317 30.2236 14.1133 28.2965C14.199 28.0884 14.3117 28.13 14.4587 28.201C15.4559 28.6809 15.9483 29.4841 15.9948 30.5762V30.5738Z" fill="white"/>
<path id="Vector_15" d="M28.6071 16.0017C28.6512 14.9022 29.1314 14.0549 30.1604 13.6142C32.042 12.811 33.9431 12.0519 35.8345 11.2683C36.0354 11.1851 36.1113 11.2561 36.1799 11.4348C36.6797 12.7179 36.0721 14.1896 34.7589 14.7602C33.4017 15.3479 32.0273 15.889 30.6577 16.4522C30.1604 16.6579 29.6557 16.8489 29.1657 17.0717C28.9158 17.1844 28.8105 17.1109 28.7419 16.871C28.661 16.5869 28.5851 16.3053 28.6047 16.0017H28.6071Z" fill="white"/>
<path id="Vector_16" d="M30.3197 22.8971C30.626 22.8727 30.9591 22.9486 31.2801 23.0808C33.1347 23.8546 34.9893 24.6308 36.8464 25.3973C37.062 25.4879 37.0963 25.5858 36.9983 25.794C36.4201 27.0477 34.9158 27.6476 33.6198 27.1138C31.7701 26.3523 29.9277 25.576 28.0829 24.8022C27.7693 24.67 27.7595 24.6357 27.9163 24.3247C28.3696 23.4261 29.2491 22.8947 30.3173 22.8947L30.3197 22.8971Z" fill="white"/>
<path id="Vector_17" d="M6.12399 31.9499C6.12399 31.1296 6.36653 30.5248 6.85897 30.0302C8.28239 28.6001 9.71561 27.1799 11.1341 25.7474C11.3179 25.5613 11.4232 25.5613 11.5947 25.7645C12.5453 26.8934 12.4914 28.3773 11.4453 29.4229C10.0611 30.8088 8.67438 32.1924 7.28771 33.5759C7.01087 33.8501 7.00107 33.855 6.74873 33.5563C6.32733 33.0592 6.10684 32.4862 6.12154 31.9499H6.12399Z" fill="white"/>
<path id="Vector_18" d="M32.4462 7.35766C32.4143 8.05064 32.1987 8.67751 31.694 9.18195C30.2804 10.5973 28.8644 12.0102 27.4507 13.4231C27.1959 13.6778 27.1543 13.6729 26.9264 13.3986C26.0249 12.3236 26.0837 10.8152 27.071 9.82596C28.4773 8.41795 29.8909 7.01484 31.2898 5.59949C31.5005 5.38645 31.6181 5.41094 31.7945 5.62153C32.2159 6.12351 32.4143 6.70386 32.4486 7.35521L32.4462 7.35766Z" fill="white"/>
<path id="Vector_19" d="M4.62713 57.0615C4.69573 56.9611 4.66388 56.851 4.66388 56.7481C4.66633 55.8666 4.67613 54.9826 4.65898 54.1011C4.65408 53.7999 4.75943 53.6897 5.05097 53.7215C5.21512 53.7386 5.38416 53.7362 5.55076 53.7215C5.83005 53.6946 5.92805 53.7999 5.9256 54.0864C5.91335 55.154 5.9207 56.2241 5.9207 57.2917C5.9207 57.899 5.9109 58.5063 5.9256 59.1136C5.9305 59.3731 5.8325 59.4515 5.58261 59.4539C4.75943 59.4588 4.75943 59.4662 4.29884 58.7781C3.6692 57.8329 3.03712 56.8877 2.39033 55.9204C2.30948 56.038 2.33888 56.1457 2.33888 56.2412C2.33643 57.1913 2.32908 58.1439 2.34133 59.094C2.34378 59.356 2.26783 59.4809 1.99099 59.4539C1.84399 59.4392 1.697 59.4539 1.55 59.4539C1.08941 59.4539 1.08451 59.449 1.08451 59.0009C1.08451 57.6688 1.08451 56.3343 1.08451 55.0022C1.08451 54.6887 1.09431 54.3753 1.08206 54.0619C1.06981 53.8023 1.18496 53.7509 1.4275 53.7191C2.08409 53.6383 2.50548 53.8464 2.84602 54.4512C3.31151 55.2764 3.8897 56.038 4.42379 56.8265C4.48013 56.9122 4.51443 57.0199 4.62713 57.0689V57.0615Z" fill="white"/>
<path id="Vector_20" d="M22.9649 56.5693C22.9649 55.7367 22.9747 54.9017 22.96 54.0691C22.9551 53.7949 23.058 53.7141 23.3201 53.719C24.0551 53.7312 24.7901 53.7165 25.5275 53.7263C26.3777 53.7361 27.0465 54.2258 27.2254 55.0021C27.4385 55.9179 27.2156 56.7994 26.4242 57.1937C26.2429 57.2843 26.2356 57.3749 26.3262 57.5365C26.6325 58.0728 26.924 58.6164 27.2278 59.1551C27.3454 59.3608 27.3185 59.4661 27.0612 59.4514C27.0416 59.4514 27.022 59.4489 27.0024 59.4514C26.2282 59.6032 25.7186 59.3363 25.4834 58.5503C25.3928 58.2466 25.1993 57.9699 25.0523 57.6834C24.9371 57.4606 24.6725 57.3749 24.3712 57.4581C24.1433 57.5218 24.2291 57.7103 24.2266 57.8524C24.2168 58.2735 24.2144 58.6947 24.2266 59.1159C24.2315 59.3461 24.1605 59.4489 23.9106 59.4538C22.9674 59.4734 22.9674 59.4808 22.9674 58.5405C22.9674 57.8842 22.9674 57.228 22.9674 56.5693H22.9649ZM24.9445 56.2656C25.0719 56.2656 25.1993 56.2681 25.3267 56.2656C25.7358 56.2534 25.9979 56.0256 26.0249 55.6632C26.0543 55.2543 25.8338 54.9556 25.4296 54.8919C25.2483 54.8625 25.0596 54.8698 24.8734 54.8723C24.1286 54.8821 24.2217 54.767 24.2217 55.5286C24.2217 56.3758 24.1041 56.2558 24.9445 56.2681V56.2656Z" fill="white"/>
<path id="Vector_21" d="M24.1948 46.194C25.1821 46.2185 24.9298 46.0177 25.2997 46.9555C25.8999 48.4762 26.4855 50.0017 27.0784 51.5273C27.2303 51.9191 27.2254 51.9264 26.7966 51.9264C26.5418 51.9264 26.287 51.9191 26.0322 51.9264C25.8485 51.9338 25.7505 51.8603 25.6843 51.6864C25.4051 50.9665 25.4002 50.969 24.6162 50.969C24.1654 50.969 23.7146 50.9763 23.2638 50.9665C23.0678 50.9616 22.9625 51.0424 22.8914 51.2236C22.6146 51.924 22.6097 51.924 21.8404 51.924C21.174 51.924 21.1764 51.924 21.419 51.2995C22.0266 49.7397 22.644 48.1823 23.2295 46.6152C23.3544 46.2821 23.5235 46.1377 23.8689 46.1891C23.9743 46.2038 24.0845 46.1915 24.1923 46.1915L24.1948 46.194ZM24.2536 47.6142C24.2242 47.6142 24.1923 47.6142 24.1629 47.6167C23.9228 48.2778 23.6803 48.9365 23.4402 49.5977C23.3936 49.7275 23.4573 49.7838 23.5798 49.7838C24.0012 49.7838 24.4226 49.7838 24.844 49.7838C24.9494 49.7838 25.0204 49.7422 24.9763 49.6197C24.7362 48.9512 24.4961 48.2803 24.2536 47.6118V47.6142Z" fill="white"/>
<path id="Vector_22" d="M32.14 49.0616C32.14 48.2192 32.1473 47.3769 32.1351 46.5345C32.1326 46.2823 32.211 46.1892 32.4707 46.1917C33.6173 46.2015 34.7639 46.2015 35.9129 46.1917C36.153 46.1917 36.2559 46.2701 36.2363 46.5149C36.2216 46.701 36.224 46.8871 36.2363 47.0732C36.2461 47.2814 36.153 47.345 35.9545 47.345C35.2294 47.3401 34.5042 47.3524 33.779 47.3377C33.5315 47.3328 33.4605 47.4209 33.4605 47.6609C33.4605 48.4298 33.4531 48.4298 34.2126 48.4298C34.7614 48.4298 35.3102 48.4372 35.859 48.4274C36.104 48.4225 36.1799 48.5155 36.1799 48.753C36.1873 49.5783 36.1946 49.5783 35.3617 49.5783C34.8423 49.5783 34.3229 49.5881 33.8035 49.5734C33.556 49.566 33.458 49.6321 33.458 49.9015C33.458 50.7806 33.4507 50.7806 34.3351 50.7806C34.8643 50.7806 35.3935 50.7879 35.9227 50.7781C36.1432 50.7732 36.2436 50.8393 36.2363 51.0769C36.2118 52.0906 36.3808 51.9143 35.4131 51.9241C34.4429 51.9339 33.4727 51.9168 32.5026 51.9315C32.2184 51.9364 32.1302 51.8409 32.1351 51.5593C32.1498 50.7267 32.14 49.8941 32.14 49.0616Z" fill="white"/>
<path id="Vector_23" d="M30.6872 58.5012C30.4128 58.5012 30.1384 58.5086 29.864 58.4988C29.6655 58.4914 29.5675 58.5722 29.4989 58.7583C29.2515 59.4513 29.2466 59.4489 28.5092 59.4489C27.7938 59.4489 27.9016 59.4587 28.1098 58.8808C28.688 57.2671 29.2809 55.6583 29.8566 54.0446C29.9424 53.8022 30.0722 53.7018 30.3295 53.7189C30.6112 53.7385 30.8979 53.7336 31.182 53.7189C31.3952 53.7091 31.4981 53.7997 31.5691 53.9932C32.1841 55.7073 32.8039 57.4213 33.4286 59.133C33.5119 59.3632 33.4752 59.4709 33.2155 59.4489C33.1567 59.444 33.0979 59.4489 33.0391 59.4489C32.7745 59.4391 32.483 59.5272 32.2551 59.4121C32.0077 59.2873 32.0371 58.9518 31.9366 58.7143C31.8729 58.5649 31.7872 58.4988 31.6279 58.5012C31.3143 58.5061 31.0007 58.5012 30.6872 58.5012ZM30.7264 55.0339C30.4667 55.7905 30.2364 56.4639 30.0061 57.1348C29.962 57.2646 30.0183 57.3136 30.1482 57.3112C30.5304 57.3087 30.9101 57.3087 31.2923 57.3112C31.4197 57.3112 31.4785 57.2646 31.4344 57.1348C31.209 56.4615 30.9836 55.7905 30.7288 55.0339H30.7264Z" fill="white"/>
<path id="Vector_24" d="M7.13826 56.5669C7.13826 55.7343 7.14561 54.9018 7.13336 54.0692C7.13091 53.8219 7.20441 53.719 7.469 53.7215C8.52738 53.7313 9.58576 53.7313 10.6466 53.7215C10.9014 53.719 10.9871 53.8047 10.9896 54.0619C10.992 54.8724 11.0018 54.8724 10.186 54.8724C9.6862 54.8724 9.18641 54.8797 8.68663 54.8699C8.47593 54.865 8.38528 54.9311 8.38773 55.154C8.40978 56.1286 8.26033 55.9425 9.15946 55.9596C9.64945 55.9694 10.1394 55.9669 10.6294 55.9596C10.8401 55.9572 10.9381 56.0331 10.9259 56.251C10.9161 56.4469 10.9161 56.6428 10.9259 56.8387C10.9357 57.0444 10.8401 57.1129 10.6417 57.1105C10.0047 57.1056 9.36771 57.1178 8.73072 57.1031C8.48328 57.0983 8.38283 57.1619 8.38283 57.4288C8.38283 58.2663 8.37303 58.2663 9.22316 58.2663C9.71315 58.2663 10.2031 58.2712 10.6931 58.2663C10.9063 58.2638 10.9896 58.3495 10.9847 58.565C10.9626 59.618 11.1341 59.4368 10.1345 59.449C9.25256 59.4588 8.37058 59.4441 7.48615 59.4564C7.21421 59.4613 7.12846 59.3609 7.13091 59.0964C7.14316 58.254 7.13581 57.4117 7.13581 56.5693L7.13826 56.5669Z" fill="white"/>
<path id="Vector_25" d="M12.0234 55.6487C12.0234 55.1099 12.0283 54.5712 12.0209 54.0325C12.016 53.8072 12.1018 53.7093 12.3321 53.7215C12.5477 53.7338 12.7633 53.7338 12.9789 53.7215C13.2092 53.7093 13.29 53.8023 13.2876 54.0301C13.2802 54.941 13.2876 55.8519 13.2827 56.7653C13.2827 56.971 13.2949 57.1742 13.3268 57.3799C13.4223 58.0092 13.8192 58.3618 14.4439 58.3643C15.0564 58.3667 15.4582 58.0239 15.5587 57.4142C15.6542 56.8387 15.5905 56.2608 15.6028 55.6829C15.6126 55.1344 15.6126 54.5859 15.6028 54.0374C15.5979 53.817 15.6665 53.7093 15.9041 53.7215C16.1393 53.7338 16.3745 53.7289 16.6097 53.7215C16.7787 53.7191 16.8669 53.7901 16.8645 53.9639C16.84 55.1883 16.9429 56.4151 16.8106 57.6346C16.6905 58.7291 15.9507 59.405 14.8482 59.5201C14.4194 59.5641 14.0054 59.5396 13.5963 59.427C12.604 59.1576 12.0601 58.379 12.0283 57.1742C12.0161 56.6649 12.0283 56.1555 12.0283 55.6462L12.0234 55.6487Z" fill="white"/>
<path id="Vector_26" d="M0.758667 49.0664C0.785616 47.8347 1.29276 46.887 2.43443 46.3899C3.55161 45.9026 4.65408 45.9516 5.63896 46.7621C6.39109 47.3817 6.36659 47.5065 5.53116 47.94C5.24452 48.0893 5.09997 48.0624 4.88438 47.8028C4.48013 47.318 3.92645 47.1784 3.31396 47.3645C2.66962 47.558 2.29233 48.0183 2.16984 48.6599C1.98609 49.6173 2.41728 50.4376 3.20861 50.7315C3.88725 50.9813 4.56588 50.7952 4.98482 50.2148C5.10487 50.0483 5.20777 50.0336 5.37436 50.1218C5.56301 50.2246 5.76391 50.3054 5.95745 50.4009C6.28575 50.5625 6.28574 50.5821 6.0677 50.8882C5.54831 51.6179 4.82313 51.9877 3.94605 52.0293C2.48098 52.0979 1.11636 51.2702 0.810116 49.6467C0.773367 49.4557 0.775817 49.2574 0.761117 49.0664H0.758667Z" fill="white"/>
<path id="Vector_27" d="M29.0138 46.1941C29.6802 46.1941 30.3465 46.2014 31.0129 46.1916C31.253 46.1867 31.3486 46.27 31.3412 46.5148C31.3192 47.5604 31.4833 47.3792 30.4813 47.3915C29.69 47.4013 29.69 47.3915 29.69 48.1824C29.69 49.3088 29.6826 50.4352 29.6949 51.5616C29.6973 51.8408 29.6067 51.9559 29.3225 51.9314C29.1093 51.9142 28.8913 51.9118 28.6757 51.9314C28.3939 51.9559 28.3229 51.8261 28.3253 51.569C28.3351 50.6678 28.3278 49.7667 28.3278 48.8656C28.3278 48.5032 28.3131 48.1408 28.3327 47.7784C28.3498 47.4894 28.2592 47.3645 27.953 47.3866C27.632 47.4086 27.3062 47.3866 26.9828 47.3939C26.7721 47.3988 26.6765 47.3107 26.679 47.1001C26.6912 45.9957 26.5491 46.2185 27.5095 46.199C28.0093 46.1892 28.5091 46.199 29.0089 46.199L29.0138 46.1941Z" fill="white"/>
<path id="Vector_28" d="M20.5223 57.1741C20.5223 57.8206 20.5125 58.4695 20.5272 59.1159C20.5321 59.3779 20.4366 59.471 20.1842 59.4514C19.9882 59.4367 19.7922 59.4392 19.5962 59.4514C19.3512 59.4661 19.2679 59.351 19.2704 59.1184C19.2777 58.5307 19.2704 57.943 19.2704 57.3529C19.2704 56.6574 19.2606 55.9596 19.2753 55.2641C19.2802 54.9899 19.1797 54.8993 18.9151 54.914C18.6212 54.9311 18.3272 54.914 18.0332 54.9189C17.8372 54.9237 17.7392 54.8429 17.7441 54.6421C17.7465 54.4169 17.7441 54.1916 17.7441 53.9663C17.7441 53.7949 17.8249 53.7214 17.9964 53.7214C19.2606 53.7239 20.5272 53.7239 21.7914 53.7214C21.9776 53.7214 22.0584 53.7949 22.0535 53.9834C22.0315 55.1098 22.2275 54.8968 21.1691 54.9164C20.4243 54.9311 20.5321 54.8331 20.5248 55.5555C20.5199 56.0942 20.5248 56.6329 20.5248 57.1741H20.5223Z" fill="white"/>
<path id="Vector_29" d="M7.18733 49.0298C7.18733 48.1973 7.19468 47.3647 7.18243 46.5322C7.17998 46.2775 7.26082 46.1722 7.52052 46.1918C7.72386 46.2065 7.93211 46.2089 8.13791 46.1918C8.41965 46.1673 8.5152 46.2775 8.51275 46.5591C8.5005 47.7639 8.50785 48.9686 8.50785 50.1734C8.50785 50.7782 8.45395 50.7292 9.05908 50.7292C9.55887 50.7292 10.0587 50.7366 10.5585 50.7268C10.8034 50.7219 10.9186 50.7978 10.9161 51.0598C10.899 52.1079 11.0386 51.9095 10.0758 51.9242C9.24283 51.9365 8.40985 51.9267 7.57687 51.9242C7.19223 51.9242 7.18978 51.9193 7.18978 51.5251C7.18978 50.6925 7.18978 49.8599 7.18978 49.0274L7.18733 49.0298Z" fill="white"/>
<path id="Vector_30" d="M34.3277 56.5594C34.3277 55.7268 34.3351 54.8943 34.3228 54.0593C34.3204 53.8046 34.4061 53.6993 34.6634 53.7189C34.8594 53.7336 35.0554 53.7336 35.2514 53.7189C35.516 53.6968 35.587 53.8168 35.5846 54.0641C35.5748 55.2885 35.5797 56.5153 35.5797 57.7397C35.5797 58.0841 35.7471 58.2563 36.0819 58.2563C36.5425 58.2563 37.0031 58.2661 37.4637 58.2539C37.7111 58.2465 37.8336 58.3249 37.8116 58.5894C37.7969 58.7657 37.7969 58.942 37.8116 59.1183C37.8336 59.3827 37.7087 59.4562 37.4637 59.4537C36.5327 59.444 35.5992 59.4415 34.6683 59.4537C34.389 59.4586 34.3155 59.3485 34.3179 59.0889C34.3277 58.2465 34.3228 57.4042 34.3228 56.5594H34.3277Z" fill="white"/>
<path id="Vector_31" d="M12.925 49.0591C12.925 49.9015 12.9176 50.7438 12.9299 51.5862C12.9323 51.8359 12.8564 51.9486 12.5942 51.9314C12.3688 51.9143 12.1434 51.9167 11.918 51.9314C11.6731 51.9461 11.5947 51.8457 11.5971 51.6058C11.6069 50.7242 11.5996 49.8427 11.5996 48.9612C11.5996 48.1482 11.6069 47.3352 11.5971 46.5222C11.5947 46.2872 11.6657 46.177 11.9156 46.1941C12.1508 46.2088 12.386 46.2064 12.6212 46.1941C12.8515 46.1819 12.9323 46.2798 12.9299 46.5051C12.9225 47.3573 12.9274 48.2094 12.9274 49.0615L12.925 49.0591Z" fill="white"/>
<path id="Vector_32" d="M31.552 68.1077C31.552 67.6767 31.552 67.2457 31.552 66.8148C31.552 66.6752 31.5716 66.5503 31.7505 66.5528C32.2184 66.5601 32.6937 66.494 33.1567 66.6115C33.8868 66.7976 34.3376 67.449 34.2861 68.2252C34.2371 68.9721 33.7178 69.523 32.9779 69.6332C32.5957 69.6895 32.2159 69.6675 31.8338 69.6773C31.6133 69.6822 31.5471 69.5793 31.552 69.3712C31.5618 68.95 31.5545 68.5289 31.5545 68.1077H31.552ZM32.2331 68.0979C32.2331 68.333 32.2331 68.568 32.2331 68.8031C32.2331 68.8937 32.2453 68.9721 32.3556 69.0064C32.897 69.1802 33.5169 68.7639 33.5561 68.1958C33.5977 67.5592 33.2278 67.2066 32.5393 67.209C32.3164 67.209 32.211 67.2727 32.2282 67.5102C32.2429 67.7036 32.2306 67.902 32.2306 68.0979H32.2331Z" fill="white"/>
<path id="Vector_33" d="M12.1901 68.0953C12.1901 67.6839 12.1974 67.2725 12.1876 66.8612C12.1827 66.6432 12.2464 66.533 12.4865 66.5428C12.8295 66.5551 13.1725 66.5404 13.5155 66.5477C13.9957 66.56 14.3534 66.8146 14.4857 67.2187C14.6327 67.6692 14.5028 68.0953 14.101 68.3818C13.9687 68.4773 13.9687 68.5434 14.0496 68.6634C14.2186 68.9156 14.3754 69.1752 14.5371 69.4323C14.6351 69.5866 14.5984 69.6576 14.4122 69.6747C14.0667 69.709 13.7801 69.6649 13.6209 69.2927C13.5327 69.087 13.3881 68.9083 13.273 68.7148C13.2044 68.5949 13.1064 68.5508 12.979 68.5851C12.8491 68.6193 12.8761 68.7344 12.8736 68.8299C12.8687 69.0356 12.8687 69.2413 12.8712 69.447C12.8712 69.709 12.6776 69.6723 12.5184 69.6747C12.3591 69.6772 12.1925 69.6845 12.1925 69.447C12.195 68.9964 12.1925 68.5459 12.1925 68.0953H12.1901ZM13.3563 67.2162C12.8663 67.2113 12.8589 67.226 12.8663 67.6423C12.8687 67.826 12.9275 67.919 13.1211 67.9068C13.2681 67.897 13.4175 67.9092 13.5596 67.8847C13.7262 67.8578 13.8095 67.728 13.8119 67.5688C13.8144 67.4072 13.736 67.2823 13.5719 67.2407C13.4788 67.2162 13.3783 67.2187 13.3538 67.2162H13.3563Z" fill="white"/>
<path id="Vector_34" d="M27.8624 68.1124C27.8624 67.7011 27.8697 67.2897 27.8599 66.8783C27.855 66.6481 27.9285 66.5379 28.1784 66.5453C28.6978 66.56 29.2172 66.56 29.7366 66.5453C29.9963 66.5379 30.0453 66.6628 30.0477 66.8856C30.0502 67.1207 29.9742 67.2309 29.7243 67.2187C29.4598 67.2064 29.1952 67.2162 28.9306 67.2187C28.7542 67.2187 28.5753 67.1893 28.5729 67.4709C28.5704 67.7672 28.7566 67.7427 28.9453 67.7427C29.2001 67.7427 29.4549 67.75 29.7097 67.7427C29.9571 67.7329 29.9987 67.8676 29.9963 68.0757C29.9938 68.2765 29.9742 68.421 29.7145 68.4087C29.4206 68.394 29.1266 68.4161 28.8326 68.4038C28.6121 68.394 28.568 68.5067 28.5729 68.6928C28.5778 68.8666 28.5631 69.0307 28.8228 69.0209C29.1364 69.0087 29.45 69.0283 29.7635 69.016C29.9938 69.0087 30.0453 69.1262 30.0428 69.3245C30.0428 69.518 30.0281 69.6821 29.7709 69.6796C29.2221 69.6772 28.6733 69.6772 28.1245 69.6796C27.9163 69.6796 27.855 69.5645 27.8575 69.3809C27.8599 68.9597 27.8575 68.5385 27.8575 68.1173L27.8624 68.1124Z" fill="white"/>
<path id="Vector_35" d="M8.49313 68.1051C8.49313 67.6839 8.49803 67.2628 8.49068 66.8416C8.48578 66.631 8.56908 66.5428 8.78468 66.5453C9.32366 66.5551 9.86265 66.5551 10.4016 66.5453C10.6564 66.5404 10.6834 66.6824 10.6858 66.8832C10.6858 67.0889 10.6466 67.226 10.3967 67.2162C10.0831 67.2064 9.76955 67.2162 9.45596 67.2162C9.28201 67.2138 9.21097 67.2897 9.21097 67.4636C9.21097 67.6423 9.26241 67.7427 9.46086 67.7403C9.76465 67.7354 10.0684 67.7476 10.3722 67.7403C10.6368 67.7354 10.6344 67.9043 10.6368 68.0929C10.6393 68.2863 10.6025 68.4136 10.3649 68.4039C10.0611 68.3916 9.7573 68.4087 9.45351 68.399C9.21832 68.3916 9.21097 68.5336 9.21097 68.705C9.21097 68.874 9.21097 69.0209 9.44861 69.016C9.772 69.0062 10.0954 69.0209 10.4188 69.0136C10.6344 69.0087 10.6858 69.1213 10.6834 69.3074C10.6809 69.4911 10.6932 69.6747 10.4286 69.6747C9.87 69.6747 9.31141 69.6747 8.75283 69.6747C8.56663 69.6747 8.49068 69.5817 8.49313 69.4005C8.49803 68.9695 8.49313 68.5385 8.49313 68.1076V68.1051Z" fill="white"/>
<path id="Vector_36" d="M5.87414 69.6944C5.13426 69.6944 4.55607 69.2854 4.35272 68.639C4.13468 67.9411 4.36742 67.182 4.91621 66.8024C5.49685 66.4009 6.25633 66.4107 6.78062 66.8245C6.81247 66.849 6.84432 66.871 6.86882 66.9004C6.96927 67.0155 7.15546 67.133 7.09421 67.2824C7.02562 67.4514 6.80757 67.5028 6.63607 67.5738C6.54543 67.6105 6.50133 67.5248 6.44743 67.4685C6.12404 67.133 5.74429 67.0743 5.39395 67.3069C5.00931 67.5615 4.87946 68.0831 5.08281 68.5386C5.2592 68.9304 5.661 69.1214 6.07994 69.0063C6.19753 68.9744 6.29063 68.9083 6.37883 68.8251C6.56993 68.6463 6.90802 68.6733 7.07216 68.879C7.16036 68.9891 7.07461 69.0626 7.01827 69.1361C6.71937 69.5132 6.33963 69.7213 5.87414 69.6944Z" fill="white"/>
<path id="Vector_37" d="M21.9629 68.0856C21.9629 67.6742 21.9678 67.2628 21.9629 66.8514C21.958 66.6482 22.0192 66.5404 22.2446 66.5453C22.7934 66.5551 23.3422 66.5527 23.891 66.5453C24.109 66.5429 24.158 66.658 24.1531 66.8416C24.1482 67.0204 24.1678 67.2114 23.9008 67.2114C23.6166 67.2114 23.3324 67.2114 23.0482 67.2114C22.8718 67.2114 22.6905 67.1844 22.6881 67.4636C22.6856 67.7574 22.8718 67.7354 23.0629 67.7354C23.3275 67.7354 23.5921 67.7403 23.8567 67.7354C24.0992 67.7305 24.1139 67.8848 24.1115 68.0684C24.1115 68.2472 24.109 68.4063 23.8567 68.399C23.5725 68.3892 23.2883 68.4112 23.0041 68.3941C22.7517 68.3794 22.6734 68.4847 22.6881 68.7198C22.7028 68.9255 22.6783 69.1312 22.693 69.3368C22.715 69.6282 22.5582 69.6772 22.3132 69.6772C22.0731 69.6772 21.9482 69.6185 21.9604 69.3466C21.9776 68.9255 21.9653 68.5043 21.9653 68.0831L21.9629 68.0856Z" fill="white"/>
<path id="Vector_38" d="M17.0507 66.5478C17.3741 66.5478 17.6975 66.5527 18.0185 66.5478C18.2439 66.5429 18.2708 66.6825 18.2659 66.8563C18.261 67.0228 18.2806 67.1967 18.0307 67.2163C17.8298 67.231 17.575 67.1232 17.4452 67.2922C17.308 67.4685 17.3986 67.7281 17.3962 67.9509C17.3888 68.4211 17.3839 68.8888 17.3962 69.3589C17.4035 69.6332 17.2639 69.6846 17.0311 69.6846C16.7984 69.6846 16.6636 69.6307 16.6685 69.3565C16.6808 68.7516 16.6636 68.1444 16.6759 67.5371C16.6808 67.2947 16.5975 67.1894 16.3549 67.2163C16.2863 67.2236 16.2177 67.2114 16.1491 67.2163C15.8895 67.2432 15.7792 67.1477 15.7817 66.871C15.7841 66.6017 15.8993 66.5356 16.1393 66.5453C16.4431 66.5576 16.7469 66.5478 17.0483 66.5478H17.0507Z" fill="white"/>
<path id="Vector_39" d="M19.6648 68.0976C19.6648 67.6765 19.677 67.2553 19.6599 66.8341C19.6501 66.555 19.8142 66.5452 20.0176 66.5452C20.2209 66.5452 20.3875 66.5476 20.3851 66.8268C20.3777 67.6789 20.3777 68.5311 20.3851 69.3857C20.3851 69.682 20.1989 69.6722 19.9906 69.6795C19.7603 69.6869 19.6476 69.6158 19.6574 69.3612C19.6721 68.94 19.6623 68.5188 19.6623 68.0976H19.6648Z" fill="white"/>
<path id="Vector_40" d="M25.5594 68.088C25.5594 67.6668 25.5668 67.2457 25.557 66.8269C25.5496 66.5453 25.7236 66.5478 25.9245 66.5453C26.1327 66.5429 26.2871 66.5625 26.2822 66.8367C26.2724 67.6864 26.2748 68.5386 26.2822 69.3883C26.2822 69.6601 26.1205 69.6772 25.9171 69.6797C25.7064 69.6797 25.5521 69.6478 25.5594 69.3809C25.5692 68.95 25.5619 68.5214 25.5619 68.0905L25.5594 68.088Z" fill="white"/>
</g>
<defs>
<clipPath id="clip0_258_897">
<rect width="37.4621" height="68.8258" fill="white" transform="translate(0.538086 0.871094)"/>
</clipPath>
</defs>
</svg>
