<svg width="430" height="405" viewBox="0 0 430 405" fill="none" xmlns="http://www.w3.org/2000/svg">
<path d="M430 295.998C430 304.455 430 311.033 430 318.55C399.152 318.55 368.304 318.55 336.522 318.55C336.522 347.68 336.522 374.93 336.522 404.06C328.109 405 321.565 405 314.087 404.06C314.087 375.87 314.087 348.62 314.087 319.49C286.044 319.49 259.87 319.49 231.826 319.49C231.826 347.68 231.826 374.93 231.826 404.06C224.348 404.06 217.804 404.06 209.391 404.06C209.391 375.87 209.391 348.62 209.391 319.49C181.348 319.49 155.174 319.49 128.065 319.49C128.065 347.68 128.065 374.93 128.065 404.06C119.652 404.06 113.109 404.06 104.696 404.06C104.696 375.87 104.696 347.68 104.696 319.49C76.6522 319.49 50.4783 319.49 23.3696 319.49C23.3696 347.68 23.3696 374.93 23.3696 403.121C15.8913 405.94 8.41308 405 0.934814 404.06C0.934814 269.687 0.934814 135.313 0.934814 5.55068e-05C8.41308 5.55068e-05 14.9566 5.55068e-05 22.4348 5.55068e-05C22.4348 28.1903 22.4348 55.4409 22.4348 84.5708C48.6087 84.5708 74.7826 84.5708 102.826 84.5708C102.826 57.3202 102.826 29.13 102.826 0.939731C111.239 -0.93962 118.717 5.55068e-05 126.196 5.55068e-05C126.196 28.1903 126.196 56.3806 126.196 84.5708C153.304 84.5708 180.413 84.5708 207.522 84.5708C207.522 56.3806 207.522 29.13 207.522 0.939731C215.935 -0.93962 222.478 5.55068e-05 230.891 5.55068e-05C230.891 28.1903 230.891 56.3806 230.891 84.5708C258.935 84.5708 285.109 84.5708 313.152 84.5708C313.152 56.3806 313.152 28.1903 313.152 5.55068e-05C320.63 5.55068e-05 327.174 5.55068e-05 335.587 5.55068e-05C335.587 28.1903 335.587 55.4409 335.587 84.5708C367.37 84.5708 398.217 84.5708 430 84.5708C430 93.0279 430 99.6056 430 107.123C399.152 107.123 368.304 107.123 337.457 107.123C337.457 134.374 337.457 161.624 337.457 189.814C367.37 189.814 398.217 189.814 430 189.814C431.87 197.332 430.935 204.849 430.935 212.367C399.152 212.367 368.304 212.367 337.457 212.367C337.457 239.617 337.457 266.868 337.457 294.118C367.37 295.998 398.217 295.998 430 295.998ZM313.152 109.002C285.109 109.002 258 109.002 231.826 109.002C231.826 136.253 231.826 163.504 231.826 190.754C258.935 190.754 286.044 190.754 313.152 190.754C313.152 163.504 313.152 137.193 313.152 109.002ZM102.826 190.754C102.826 162.564 102.826 136.253 102.826 109.002C75.7174 109.002 49.5435 109.002 23.3696 109.002C23.3696 136.253 23.3696 163.504 23.3696 190.754C49.5435 190.754 75.7174 190.754 102.826 190.754ZM127.13 190.754C154.239 190.754 181.348 190.754 207.522 190.754C207.522 163.504 207.522 136.253 207.522 109.002C180.413 109.002 154.239 109.002 127.13 109.002C127.13 136.253 127.13 163.504 127.13 190.754ZM312.217 295.058C312.217 267.807 312.217 240.557 312.217 214.246C285.109 214.246 258 214.246 230.891 214.246C230.891 241.497 230.891 267.807 230.891 295.058C258.935 295.058 285.109 295.058 312.217 295.058ZM102.826 295.058C102.826 267.807 102.826 241.497 102.826 214.246C75.7174 214.246 48.6087 214.246 22.4348 214.246C22.4348 241.497 22.4348 267.807 22.4348 295.058C49.5435 295.058 75.7174 295.058 102.826 295.058ZM127.13 214.246C127.13 241.497 127.13 267.807 127.13 295.058C154.239 295.058 180.413 295.058 207.522 295.058C207.522 267.807 207.522 241.497 207.522 214.246C181.348 214.246 155.174 214.246 127.13 214.246Z" fill="#3F5260"/>
</svg>
